<svg width="38" height="38" viewBox="0 0 38 38" fill="none" xmlns="http://www.w3.org/2000/svg">
<g filter="url(#filter0_d)">
<rect x="4" width="30" height="30" rx="4" fill="#3E3E3E"/>
</g>
<path d="M14.5 12V11.25C14.5 10.0565 14.9741 8.91193 15.818 8.06802C16.6619 7.22411 17.8065 6.75 19 6.75C20.1935 6.75 21.3381 7.22411 22.182 8.06802C23.0259 8.91193 23.5 10.0565 23.5 11.25V12H25C25.1989 12 25.3897 12.079 25.5303 12.2197C25.671 12.3603 25.75 12.5511 25.75 12.75V21.75C25.75 21.9489 25.671 22.1397 25.5303 22.2803C25.3897 22.421 25.1989 22.5 25 22.5H13C12.8011 22.5 12.6103 22.421 12.4697 22.2803C12.329 22.1397 12.25 21.9489 12.25 21.75V12.75C12.25 12.5511 12.329 12.3603 12.4697 12.2197C12.6103 12.079 12.8011 12 13 12H14.5ZM24.25 13.5H13.75V21H24.25V13.5ZM18.25 17.799C17.964 17.6339 17.7405 17.3791 17.6142 17.074C17.4878 16.7689 17.4656 16.4307 17.5511 16.1117C17.6366 15.7928 17.8249 15.5109 18.0869 15.3099C18.3488 15.1089 18.6698 15 19 15C19.3302 15 19.6512 15.1089 19.9131 15.3099C20.1751 15.5109 20.3634 15.7928 20.4489 16.1117C20.5344 16.4307 20.5122 16.7689 20.3858 17.074C20.2595 17.3791 20.036 17.6339 19.75 17.799V19.5H18.25V17.799ZM16 12H22V11.25C22 10.4544 21.6839 9.69129 21.1213 9.12868C20.5587 8.56607 19.7956 8.25 19 8.25C18.2044 8.25 17.4413 8.56607 16.8787 9.12868C16.3161 9.69129 16 10.4544 16 11.25V12Z" fill="white"/>
<defs>
<filter id="filter0_d" x="0" y="0" width="38" height="38" filterUnits="userSpaceOnUse" color-interpolation-filters="sRGB">
<feFlood flood-opacity="0" result="BackgroundImageFix"/>
<feColorMatrix in="SourceAlpha" type="matrix" values="0 0 0 0 0 0 0 0 0 0 0 0 0 0 0 0 0 0 127 0"/>
<feOffset dy="4"/>
<feGaussianBlur stdDeviation="2"/>
<feColorMatrix type="matrix" values="0 0 0 0 0.47451 0 0 0 0 0.45098 0 0 0 0 0.996078 0 0 0 0.1 0"/>
<feBlend mode="normal" in2="BackgroundImageFix" result="effect1_dropShadow"/>
<feBlend mode="normal" in="SourceGraphic" in2="effect1_dropShadow" result="shape"/>
</filter>
</defs>
</svg>
