<svg width="38" height="38" viewBox="0 0 38 38" fill="none" xmlns="http://www.w3.org/2000/svg">
<g filter="url(#filter0_d)">
<rect x="4" width="30" height="30" rx="4" fill="#3E3E3E"/>
</g>
<path d="M13 22.5C13 20.9087 13.6321 19.3826 14.7574 18.2574C15.8826 17.1321 17.4087 16.5 19 16.5C20.5913 16.5 22.1174 17.1321 23.2426 18.2574C24.3679 19.3826 25 20.9087 25 22.5H23.5C23.5 21.3065 23.0259 20.1619 22.182 19.318C21.3381 18.4741 20.1935 18 19 18C17.8065 18 16.6619 18.4741 15.818 19.318C14.9741 20.1619 14.5 21.3065 14.5 22.5H13ZM19 15.75C16.5138 15.75 14.5 13.7362 14.5 11.25C14.5 8.76375 16.5138 6.75 19 6.75C21.4862 6.75 23.5 8.76375 23.5 11.25C23.5 13.7362 21.4862 15.75 19 15.75ZM19 14.25C20.6575 14.25 22 12.9075 22 11.25C22 9.5925 20.6575 8.25 19 8.25C17.3425 8.25 16 9.5925 16 11.25C16 12.9075 17.3425 14.25 19 14.25Z" fill="white"/>
<defs>
<filter id="filter0_d" x="0" y="0" width="38" height="38" filterUnits="userSpaceOnUse" color-interpolation-filters="sRGB">
<feFlood flood-opacity="0" result="BackgroundImageFix"/>
<feColorMatrix in="SourceAlpha" type="matrix" values="0 0 0 0 0 0 0 0 0 0 0 0 0 0 0 0 0 0 127 0"/>
<feOffset dy="4"/>
<feGaussianBlur stdDeviation="2"/>
<feColorMatrix type="matrix" values="0 0 0 0 0.47451 0 0 0 0 0.45098 0 0 0 0 0.996078 0 0 0 0.1 0"/>
<feBlend mode="normal" in2="BackgroundImageFix" result="effect1_dropShadow"/>
<feBlend mode="normal" in="SourceGraphic" in2="effect1_dropShadow" result="shape"/>
</filter>
</defs>
</svg>
