<svg width="38" height="38" viewBox="0 0 38 38" fill="none" xmlns="http://www.w3.org/2000/svg">
<g filter="url(#filter0_d)">
<rect x="4" width="30" height="30" rx="4" fill="#3E3E3E"/>
</g>
<path d="M18.25 6.40725C18.4975 6.3855 18.7473 6.375 19 6.375C23.7633 6.375 27.625 10.2368 27.625 15C27.625 15.2528 27.6145 15.5025 27.5928 15.75H26.4633C26.0868 19.5398 22.8888 22.5 19 22.5C14.8578 22.5 11.5 19.1423 11.5 15C11.5 11.1112 14.4602 7.91325 18.25 7.5375V6.4065V6.40725ZM18.25 15.75V9.0465C16.737 9.23901 15.3541 10.0004 14.3824 11.1759C13.4106 12.3514 12.923 13.8528 13.0185 15.375C13.114 16.8972 13.7855 18.3259 14.8966 19.3707C16.0076 20.4155 17.4748 20.9981 19 21C20.4615 21 21.8727 20.4666 22.9688 19.5C24.0649 18.5334 24.7707 17.2 24.9535 15.75H18.25ZM26.086 14.25C25.9141 12.6284 25.1913 11.1148 24.0382 9.96179C22.8852 8.80874 21.3716 8.08594 19.75 7.914V14.25H26.086Z" fill="white"/>
<defs>
<filter id="filter0_d" x="0" y="0" width="38" height="38" filterUnits="userSpaceOnUse" color-interpolation-filters="sRGB">
<feFlood flood-opacity="0" result="BackgroundImageFix"/>
<feColorMatrix in="SourceAlpha" type="matrix" values="0 0 0 0 0 0 0 0 0 0 0 0 0 0 0 0 0 0 127 0"/>
<feOffset dy="4"/>
<feGaussianBlur stdDeviation="2"/>
<feColorMatrix type="matrix" values="0 0 0 0 0.47451 0 0 0 0 0.45098 0 0 0 0 0.996078 0 0 0 0.1 0"/>
<feBlend mode="normal" in2="BackgroundImageFix" result="effect1_dropShadow"/>
<feBlend mode="normal" in="SourceGraphic" in2="effect1_dropShadow" result="shape"/>
</filter>
</defs>
</svg>
