<svg width="38" height="38" viewBox="0 0 38 38" fill="none" xmlns="http://www.w3.org/2000/svg">
<g filter="url(#filter0_d)">
<rect x="4" width="30" height="30" rx="4" fill="#3E3E3E"/>
</g>
<path d="M17.5 10.5V12H13.75V20.25H22V16.5H23.5V21C23.5 21.1989 23.421 21.3897 23.2803 21.5303C23.1397 21.671 22.9489 21.75 22.75 21.75H13C12.8011 21.75 12.6103 21.671 12.4697 21.5303C12.329 21.3897 12.25 21.1989 12.25 21V11.25C12.25 11.0511 12.329 10.8603 12.4697 10.7197C12.6103 10.579 12.8011 10.5 13 10.5H17.5ZM25.75 8.25V14.25H24.25V10.8098L18.4052 16.6552L17.3448 15.5948L23.1887 9.75H19.75V8.25H25.75Z" fill="white"/>
<defs>
<filter id="filter0_d" x="0" y="0" width="38" height="38" filterUnits="userSpaceOnUse" color-interpolation-filters="sRGB">
<feFlood flood-opacity="0" result="BackgroundImageFix"/>
<feColorMatrix in="SourceAlpha" type="matrix" values="0 0 0 0 0 0 0 0 0 0 0 0 0 0 0 0 0 0 127 0"/>
<feOffset dy="4"/>
<feGaussianBlur stdDeviation="2"/>
<feColorMatrix type="matrix" values="0 0 0 0 0.47451 0 0 0 0 0.45098 0 0 0 0 0.996078 0 0 0 0.1 0"/>
<feBlend mode="normal" in2="BackgroundImageFix" result="effect1_dropShadow"/>
<feBlend mode="normal" in="SourceGraphic" in2="effect1_dropShadow" result="shape"/>
</filter>
</defs>
</svg>
