<svg width="38" height="38" viewBox="0 0 38 38" fill="none" xmlns="http://www.w3.org/2000/svg">
<g filter="url(#filter0_d)">
<rect x="4" width="30" height="30" rx="4" fill="#3E3E3E"/>
</g>
<path d="M13.75 15.375C13.75 15.6097 14.0958 16.0185 14.8975 16.4198C15.9355 16.9387 17.4078 17.25 19 17.25C20.5922 17.25 22.0645 16.9387 23.1025 16.4198C23.9042 16.0185 24.25 15.6097 24.25 15.375V13.7468C23.0125 14.5118 21.1202 15 19 15C16.8798 15 14.9875 14.511 13.75 13.7468V15.375ZM24.25 17.4967C23.0125 18.2618 21.1202 18.75 19 18.75C16.8798 18.75 14.9875 18.261 13.75 17.4967V19.125C13.75 19.3597 14.0958 19.7685 14.8975 20.1698C15.9355 20.6887 17.4078 21 19 21C20.5922 21 22.0645 20.6887 23.1025 20.1698C23.9042 19.7685 24.25 19.3597 24.25 19.125V17.4967ZM12.25 19.125V11.625C12.25 9.76125 15.2725 8.25 19 8.25C22.7275 8.25 25.75 9.76125 25.75 11.625V19.125C25.75 20.9887 22.7275 22.5 19 22.5C15.2725 22.5 12.25 20.9887 12.25 19.125ZM19 13.5C20.5922 13.5 22.0645 13.1887 23.1025 12.6697C23.9042 12.2685 24.25 11.8598 24.25 11.625C24.25 11.3902 23.9042 10.9815 23.1025 10.5802C22.0645 10.0612 20.5922 9.75 19 9.75C17.4078 9.75 15.9355 10.0612 14.8975 10.5802C14.0958 10.9815 13.75 11.3902 13.75 11.625C13.75 11.8598 14.0958 12.2685 14.8975 12.6697C15.9355 13.1887 17.4078 13.5 19 13.5Z" fill="white"/>
<defs>
<filter id="filter0_d" x="0" y="0" width="38" height="38" filterUnits="userSpaceOnUse" color-interpolation-filters="sRGB">
<feFlood flood-opacity="0" result="BackgroundImageFix"/>
<feColorMatrix in="SourceAlpha" type="matrix" values="0 0 0 0 0 0 0 0 0 0 0 0 0 0 0 0 0 0 127 0"/>
<feOffset dy="4"/>
<feGaussianBlur stdDeviation="2"/>
<feColorMatrix type="matrix" values="0 0 0 0 0.47451 0 0 0 0 0.45098 0 0 0 0 0.996078 0 0 0 0.1 0"/>
<feBlend mode="normal" in2="BackgroundImageFix" result="effect1_dropShadow"/>
<feBlend mode="normal" in="SourceGraphic" in2="effect1_dropShadow" result="shape"/>
</filter>
</defs>
</svg>
