<svg width="38" height="38" viewBox="0 0 38 38" fill="none" xmlns="http://www.w3.org/2000/svg">
<g filter="url(#filter0_d)">
<rect x="4" width="30" height="30" rx="4" fill="#3E3E3E"/>
</g>
<path d="M25.0621 17.4L25.9636 17.9407C26.0193 17.974 26.0653 18.0212 26.0973 18.0776C26.1292 18.134 26.146 18.1977 26.146 18.2625C26.146 18.3273 26.1292 18.391 26.0973 18.4474C26.0653 18.5038 26.0193 18.5509 25.9636 18.5842L19.3861 22.5307C19.2695 22.6008 19.136 22.6378 18.9999 22.6378C18.8638 22.6378 18.7303 22.6008 18.6136 22.5307L12.0361 18.5842C11.9805 18.5509 11.9345 18.5038 11.9025 18.4474C11.8706 18.391 11.8538 18.3273 11.8538 18.2625C11.8538 18.1977 11.8706 18.134 11.9025 18.0776C11.9345 18.0212 11.9805 17.974 12.0361 17.9407L12.9376 17.4L18.9999 21.0375L25.0621 17.4ZM25.0621 13.875L25.9636 14.4157C26.0193 14.449 26.0653 14.4962 26.0973 14.5526C26.1292 14.609 26.146 14.6727 26.146 14.7375C26.146 14.8023 26.1292 14.866 26.0973 14.9224C26.0653 14.9788 26.0193 15.0259 25.9636 15.0592L18.9999 19.2375L12.0361 15.0592C11.9805 15.0259 11.9345 14.9788 11.9025 14.9224C11.8706 14.866 11.8538 14.8023 11.8538 14.7375C11.8538 14.6727 11.8706 14.609 11.9025 14.5526C11.9345 14.4962 11.9805 14.449 12.0361 14.4157L12.9376 13.875L18.9999 17.5125L25.0621 13.875ZM19.3854 6.98174L25.9636 10.9282C26.0193 10.9615 26.0653 11.0087 26.0973 11.0651C26.1292 11.1215 26.146 11.1852 26.146 11.25C26.146 11.3148 26.1292 11.3785 26.0973 11.4349C26.0653 11.4913 26.0193 11.5384 25.9636 11.5717L18.9999 15.75L12.0361 11.5717C11.9805 11.5384 11.9345 11.4913 11.9025 11.4349C11.8706 11.3785 11.8538 11.3148 11.8538 11.25C11.8538 11.1852 11.8706 11.1215 11.9025 11.0651C11.9345 11.0087 11.9805 10.9615 12.0361 10.9282L18.6136 6.98174C18.7303 6.91166 18.8638 6.87463 18.9999 6.87463C19.136 6.87463 19.2695 6.91166 19.3861 6.98174H19.3854ZM18.9999 8.49899L14.4151 11.25L18.9999 14.001L23.5846 11.25L18.9999 8.49899Z" fill="white"/>
<defs>
<filter id="filter0_d" x="0" y="0" width="38" height="38" filterUnits="userSpaceOnUse" color-interpolation-filters="sRGB">
<feFlood flood-opacity="0" result="BackgroundImageFix"/>
<feColorMatrix in="SourceAlpha" type="matrix" values="0 0 0 0 0 0 0 0 0 0 0 0 0 0 0 0 0 0 127 0"/>
<feOffset dy="4"/>
<feGaussianBlur stdDeviation="2"/>
<feColorMatrix type="matrix" values="0 0 0 0 0.47451 0 0 0 0 0.45098 0 0 0 0 0.996078 0 0 0 0.1 0"/>
<feBlend mode="normal" in2="BackgroundImageFix" result="effect1_dropShadow"/>
<feBlend mode="normal" in="SourceGraphic" in2="effect1_dropShadow" result="shape"/>
</filter>
</defs>
</svg>
