<svg width="38" height="38" viewBox="0 0 38 38" fill="none" xmlns="http://www.w3.org/2000/svg">
<g filter="url(#filter0_d)">
<rect x="4" width="30" height="30" rx="4" fill="#3E3E3E"/>
</g>
<path d="M18.25 20.25V12.75H13V20.25H18.25ZM18.25 11.25V9C18.25 8.80109 18.329 8.61032 18.4697 8.46967C18.6103 8.32902 18.8011 8.25 19 8.25H25.75C25.9489 8.25 26.1397 8.32902 26.2803 8.46967C26.421 8.61032 26.5 8.80109 26.5 9V21C26.5 21.1989 26.421 21.3897 26.2803 21.5303C26.1397 21.671 25.9489 21.75 25.75 21.75H12.25C12.0511 21.75 11.8603 21.671 11.7197 21.5303C11.579 21.3897 11.5 21.1989 11.5 21V12C11.5 11.8011 11.579 11.6103 11.7197 11.4697C11.8603 11.329 12.0511 11.25 12.25 11.25H18.25ZM19.75 9.75V20.25H25V9.75H19.75ZM13.75 18H17.5V19.5H13.75V18ZM20.5 18H24.25V19.5H20.5V18ZM20.5 15.75H24.25V17.25H20.5V15.75ZM20.5 13.5H24.25V15H20.5V13.5ZM13.75 15.75H17.5V17.25H13.75V15.75Z" fill="white"/>
<defs>
<filter id="filter0_d" x="0" y="0" width="38" height="38" filterUnits="userSpaceOnUse" color-interpolation-filters="sRGB">
<feFlood flood-opacity="0" result="BackgroundImageFix"/>
<feColorMatrix in="SourceAlpha" type="matrix" values="0 0 0 0 0 0 0 0 0 0 0 0 0 0 0 0 0 0 127 0"/>
<feOffset dy="4"/>
<feGaussianBlur stdDeviation="2"/>
<feColorMatrix type="matrix" values="0 0 0 0 0.47451 0 0 0 0 0.45098 0 0 0 0 0.996078 0 0 0 0.1 0"/>
<feBlend mode="normal" in2="BackgroundImageFix" result="effect1_dropShadow"/>
<feBlend mode="normal" in="SourceGraphic" in2="effect1_dropShadow" result="shape"/>
</filter>
</defs>
</svg>
