<svg width="38" height="38" viewBox="0 0 38 38" fill="none" xmlns="http://www.w3.org/2000/svg">
<g filter="url(#filter0_d)">
<rect x="4" width="30" height="30" rx="4" fill="#3E3E3E"/>
</g>
<path d="M24.25 13.5H25C25.1989 13.5 25.3897 13.579 25.5303 13.7197C25.671 13.8603 25.75 14.0511 25.75 14.25V21.75C25.75 21.9489 25.671 22.1397 25.5303 22.2803C25.3897 22.421 25.1989 22.5 25 22.5H13C12.8011 22.5 12.6103 22.421 12.4697 22.2803C12.329 22.1397 12.25 21.9489 12.25 21.75V14.25C12.25 14.0511 12.329 13.8603 12.4697 13.7197C12.6103 13.579 12.8011 13.5 13 13.5H13.75V12.75C13.75 12.0606 13.8858 11.3779 14.1496 10.7409C14.4135 10.104 14.8002 9.5252 15.2877 9.03769C15.7752 8.55018 16.354 8.16347 16.9909 7.89963C17.6279 7.6358 18.3106 7.5 19 7.5C19.6894 7.5 20.3721 7.6358 21.0091 7.89963C21.646 8.16347 22.2248 8.55018 22.7123 9.03769C23.1998 9.5252 23.5865 10.104 23.8504 10.7409C24.1142 11.3779 24.25 12.0606 24.25 12.75V13.5ZM13.75 15V21H24.25V15H13.75ZM18.25 16.5H19.75V19.5H18.25V16.5ZM22.75 13.5V12.75C22.75 11.7554 22.3549 10.8016 21.6517 10.0983C20.9484 9.39509 19.9946 9 19 9C18.0054 9 17.0516 9.39509 16.3483 10.0983C15.6451 10.8016 15.25 11.7554 15.25 12.75V13.5H22.75Z" fill="white"/>
<defs>
<filter id="filter0_d" x="0" y="0" width="38" height="38" filterUnits="userSpaceOnUse" color-interpolation-filters="sRGB">
<feFlood flood-opacity="0" result="BackgroundImageFix"/>
<feColorMatrix in="SourceAlpha" type="matrix" values="0 0 0 0 0 0 0 0 0 0 0 0 0 0 0 0 0 0 127 0"/>
<feOffset dy="4"/>
<feGaussianBlur stdDeviation="2"/>
<feColorMatrix type="matrix" values="0 0 0 0 0.47451 0 0 0 0 0.45098 0 0 0 0 0.996078 0 0 0 0.1 0"/>
<feBlend mode="normal" in2="BackgroundImageFix" result="effect1_dropShadow"/>
<feBlend mode="normal" in="SourceGraphic" in2="effect1_dropShadow" result="shape"/>
</filter>
</defs>
</svg>
