<svg width="38" height="38" viewBox="0 0 38 38" fill="none" xmlns="http://www.w3.org/2000/svg">
<g filter="url(#filter0_d)">
<rect x="4" width="30" height="30" rx="4" fill="#3E3E3E"/>
</g>
<path d="M19 21.675L22.7125 17.9625C23.4467 17.2283 23.9466 16.2928 24.1492 15.2744C24.3517 14.256 24.2477 13.2005 23.8503 12.2412C23.4529 11.2819 22.78 10.462 21.9167 9.88513C21.0533 9.30827 20.0383 9.00038 19 9.00038C17.9617 9.00038 16.9467 9.30827 16.0833 9.88513C15.22 10.462 14.5471 11.2819 14.1497 12.2412C13.7523 13.2005 13.6483 14.256 13.8508 15.2744C14.0534 16.2928 14.5533 17.2283 15.2875 17.9625L19 21.675ZM19 23.796L14.227 19.023C13.283 18.079 12.6401 16.8763 12.3797 15.5669C12.1193 14.2575 12.2529 12.9003 12.7638 11.6669C13.2747 10.4335 14.1399 9.37933 15.2499 8.63764C16.3599 7.89594 17.665 7.50006 19 7.50006C20.335 7.50006 21.6401 7.89594 22.7501 8.63764C23.8601 9.37933 24.7253 10.4335 25.2362 11.6669C25.7471 12.9003 25.8808 14.2575 25.6203 15.5669C25.3599 16.8763 24.717 18.079 23.773 19.023L19 23.796ZM19 15.75C19.3978 15.75 19.7794 15.592 20.0607 15.3107C20.342 15.0294 20.5 14.6478 20.5 14.25C20.5 13.8522 20.342 13.4706 20.0607 13.1893C19.7794 12.908 19.3978 12.75 19 12.75C18.6022 12.75 18.2206 12.908 17.9393 13.1893C17.658 13.4706 17.5 13.8522 17.5 14.25C17.5 14.6478 17.658 15.0294 17.9393 15.3107C18.2206 15.592 18.6022 15.75 19 15.75ZM19 17.25C18.2044 17.25 17.4413 16.9339 16.8787 16.3713C16.3161 15.8087 16 15.0457 16 14.25C16 13.4544 16.3161 12.6913 16.8787 12.1287C17.4413 11.5661 18.2044 11.25 19 11.25C19.7957 11.25 20.5587 11.5661 21.1213 12.1287C21.6839 12.6913 22 13.4544 22 14.25C22 15.0457 21.6839 15.8087 21.1213 16.3713C20.5587 16.9339 19.7957 17.25 19 17.25Z" fill="white"/>
<defs>
<filter id="filter0_d" x="0" y="0" width="38" height="38" filterUnits="userSpaceOnUse" color-interpolation-filters="sRGB">
<feFlood flood-opacity="0" result="BackgroundImageFix"/>
<feColorMatrix in="SourceAlpha" type="matrix" values="0 0 0 0 0 0 0 0 0 0 0 0 0 0 0 0 0 0 127 0"/>
<feOffset dy="4"/>
<feGaussianBlur stdDeviation="2"/>
<feColorMatrix type="matrix" values="0 0 0 0 0.47451 0 0 0 0 0.45098 0 0 0 0 0.996078 0 0 0 0.1 0"/>
<feBlend mode="normal" in2="BackgroundImageFix" result="effect1_dropShadow"/>
<feBlend mode="normal" in="SourceGraphic" in2="effect1_dropShadow" result="shape"/>
</filter>
</defs>
</svg>
